<?xml version="1.0" encoding="UTF-8"?>
<svg id="Layer_2" data-name="Layer 2" xmlns="http://www.w3.org/2000/svg" xmlns:xlink="http://www.w3.org/1999/xlink" viewBox="0 0 352.4 416">
  <defs>
    <style>
      .cls-1 {
        fill: url(#linear-gradient);
        stroke-width: 0px;
      }
    </style>
    <linearGradient id="linear-gradient" x1="0" y1="208" x2="352.4" y2="208" gradientUnits="userSpaceOnUse">
      <stop offset="0" stop-color="#fdbf4f"/>
      <stop offset=".85" stop-color="#ee4a3a"/>
    </linearGradient>
  </defs>
  <g id="Layer_2-2" data-name="Layer 2">
    <path class="cls-1" d="m350.8,90.67c-.44-2.47-.97-4.91-1.61-7.32-8.53-31.69-31.83-54.39-61.36-67.11C260.48,4.44,231.46.81,201.97.4c-45.94-.63-94.29-2.74-137.37,15.82C35.05,28.95,11.76,51.65,3.23,83.34c-.64,2.41-1.19,4.85-1.63,7.32-4.33,24.35.38,49.76,10.83,72.01,3.35,7.14,7.48,13.79,11.93,20.22,4.59,6.67,9.53,13.12,14.33,19.66,1.14,1.55,2.27,3.11,3.4,4.68,3.18,4.46,6.38,8.97,8.37,14.07l.03.06c1.36,3.52,1.3,7.43-.14,10.92-6.35,15.46-9.84,32.35-9.84,50.05,0,3.54.14,7.04.42,10.52l1.18,10.06c10.06,64.05,66.27,113.07,134.1,113.07s124.37-49.32,134.18-113.63l1.14-10.06c.25-3.29.38-6.6.38-9.95,0-17.7-3.5-34.59-9.84-50.05-1.44-3.49-1.5-7.4-.14-10.92l.03-.06c1.93-4.95,5.02-9.33,8.09-13.68.09-.13.19-.27.28-.39,4.48-6.28,9.18-12.41,13.73-18.67,5.94-8.23,11.57-16.65,15.92-25.89,10.45-22.26,15.16-47.66,10.83-72.01Zm-199.6,176.83v24.81h-32.73v14.85h37.19v26.29h-70.22v-105.18h70.22v26.29h-37.19v12.93h32.73Zm84.05,65.96l-19.34-27.34-24.29,35.2h-37.63l42.88-62.07-43.2-57.94h39.12l25.64,33.28,15.47-26.29h37.65l-34.07,53.18,36.89,51.99h-39.12Zm52.21-195.82c-.03.06-9.09,21.18-18.46,29.93-.22.2-.42.39-.64.58-5.55,4.68-13.57,5.01-19.73,1.17-20.95-13.05-45.8-20.61-72.43-20.61s-51.17,7.47-72.03,20.38c-.13.06-.24.14-.34.22-6.18,3.83-14.22,3.54-19.78-1.16-.2-.19-.42-.38-.64-.58-9.37-8.75-18.43-29.86-18.45-29.93-4.61-10.71-9.22-21.07-6.54-33.04,3.93-17.5,20.69-27.08,36.41-32.57,20.99-7.29,43.96-10.71,66.11-11.71,5.09-.22,10.17-.3,15.27-.22,5.09-.08,10.19,0,15.27.22,22.16,1,45.12,4.41,66.12,11.71,15.72,5.49,32.47,15.07,36.39,32.57,2.7,11.97-1.93,22.33-6.52,33.04Z"/>
  </g>
</svg>